<?xml version="1.0" encoding="utf-8"?>
<!-- Generator: Adobe Illustrator 22.0.1, SVG Export Plug-In . SVG Version: 6.00 Build 0)  -->
<svg version="1.1" id="Layer_1" xmlns="http://www.w3.org/2000/svg" xmlns:xlink="http://www.w3.org/1999/xlink" x="0px" y="0px"
	 viewBox="0 0 1053.4 295.9" style="enable-background:new 0 0 1053.4 295.9;" xml:space="preserve">
<style type="text/css">
	.st0{fill:#CABFFF;}
</style>
<g>
	<g>
		<path class="st0" d="M70.5,37.6C60.1,35.6,52.6,43.3,48.5,52c-4,8.4-7.1,20-0.9,28.1c7.1,9.2,21.4,9.4,31.7,7.1
			c11-2.4,21.4-8.1,30.4-14.7c8.8-6.5,16.5-14.3,22.9-23.2c5.4-7.5,12.1-17.5,13.1-26.9c0.4-3.9-0.2-8.2-3.4-10.9
			c-3.5-2.8-8.4-2.2-11.5,0.8c-3.9,3.6-5.8,9.5-8.1,14.2c-3.2,6.5-6.4,13.1-9.6,19.6C100.7,71.6,88.3,97,75.8,122.4
			c-5.8,11.7-11.7,23.4-18.8,34.4c-6.5,10-14.2,20.7-24.5,27.1c-2,1.2-5.2,3.5-7.6,3.5c-2.1,0-2.3-0.1-3.1-2.2
			c-0.5-1.2-0.6-2.6-0.7-3.9c-0.2-5,2.3-9.9,5.8-13.4c8.1-8.3,20.7-7.6,30.5-3c11.6,5.4,19.8,15.6,27.2,25.7
			c6.8,9.4,13.5,18.8,21.2,27.5c16.4,18.7,37.9,34.1,63.6,34.7c21.9,0.6,52.3-13.8,47.9-40.1c-1-5.7-9.6-3.3-8.7,2.4
			c1.8,11.1-8.4,20.3-17.4,24.5c-8.6,4-18.4,4.9-27.7,3.7c-21.8-2.8-39.2-17.4-53-33.6c-13.9-16.3-24.2-37.1-42.4-49.2
			c-15.9-10.5-38.9-12.2-50.9,4.9c-4.7,6.7-6.6,15.6-3.6,23.4c4,10.4,14.1,8.1,22.1,3.7c18.9-10.6,31.1-32.7,40.8-51.2
			c11.6-22.2,22.2-44.9,33.2-67.4c5.7-11.6,11.3-23.2,17-34.8c2.8-5.6,5.3-11.4,8.3-17c0.4-0.8,0.8-1.6,1.3-2.3
			c0.9-1.5,0.3-1.9,0.7-0.2c0.4,2.1-0.6,4.5-1.4,6.4c-8.5,21-25.6,38.7-46.1,48.3c-6.2,2.9-13.1,5.1-20,5.2
			c-5.7,0.1-14.2-1.1-16-7.7c-1.9-7.1,4.8-27.4,14.6-25.5C73.7,47.4,76.1,38.7,70.5,37.6L70.5,37.6z"/>
	</g>
</g>
<g>
	<g>
		<path class="st0" d="M157.6,115.3c5.8,0,5.8-9,0-9C151.8,106.3,151.8,115.3,157.6,115.3L157.6,115.3z"/>
	</g>
</g>
<g>
	<g>
		<path class="st0" d="M159.6,112.4c-12.5-4.9-21.2,11.1-26,19.8c-6.2,11.1-10.9,23.7-8.2,36.5c4.6,22.4,30.7,33.6,50.9,25.2
			c22.7-9.4,32.2-35.3,25.2-58.1c-3.3-10.8-10-21.7-20.4-27c-9.4-4.8-20.5-3.7-27.7,4.5c-6.5,7.5-6.9,18.9,1.5,25.1
			c7.6,5.7,18.9,4.6,26.7-0.1c10.5-6.3,16.2-18.3,26.8-24.3c4.6-2.6,10.9-4.5,15.8-1.2c5.1,3.4,6,10.7,5.2,16.4
			c-1.8,12.2-9.2,22.5-9.9,35c-0.6,10.2,2.6,21.1,11.1,27.4c8.8,6.6,21,6.6,30.6,1.9c9.9-4.9,16.3-15.2,18.2-25.9
			c2.4-13.4-1.4-26.8-8.3-38.3c-2.4-4.1-6.9-13.5-12.6-12.9c-5.6,0.6-7.7,7.4-4.7,11.7c3.1,4.5,10,5.7,15.1,6.5
			c6,0.9,12.1,0.8,18.1-0.3c12.5-2.3,24.2-9.2,32-19.2c1.1-1.5,2-3.7,0.7-5.5c-4.5-6.2-12.8-7-18.9-2.3c-6.8,5.3-8.1,15-9.9,22.8
			c-3.2,14.3-9.6,35.8,3.9,47c14.5,11.9,34.1-1.1,45.9-10.5c13.8-11,25-25.3,33.3-40.8c8.3-15.5,14.5-32.8,17.1-50.2
			c1.2-8.1,1.4-16.6-1.7-24.3c-2.6-6.7-9.3-15.2-17.5-13.5c-8.5,1.8-10.3,14.7-12.3,21.5c-3.1,10.7-5.4,21.5-7,32.5
			c-3.2,21.2-3.9,42.6-2.7,64c0.6,10.1,0.4,22.5,6.5,31.1c5.4,7.6,15,11.1,23.4,6.1c8.7-5.1,14-16.3,17.8-25.2
			c4.4-10.4,6.7-21.4,7.1-32.7c0.2-5.9-8.3-5.6-9,0c-1.1,9.6-4.3,43,13.8,39.4c7.3-1.4,10.9-9.1,13.3-15.3c3.6-8.8,6-17.9,7.5-27.3
			c-2.9,0-5.8,0-8.7,0c2.7,19.8,4.5,39.7,5.5,59.7c0.5,9.5,0.8,19.1,0.9,28.6c0.1,9.3,0.6,19.1-2.2,28.1c-4.4,14-19.7,27.9-34,31.2
			c-17.2,3.9-24.5-14.2-17.9-27.8c7.4-15.2,24.6-25.7,38.1-34.9c14.9-10.3,30.3-19.7,45.2-30.1c24.9-17.4,54-41.2,49.5-75.3
			c-1.8-13.9-13.1-33.6-29.6-24.8c-6.8,3.6-10.9,10.8-10.4,18.4c0.5,8.3,5.5,15.2,11.9,20.1c4.6,3.5,9.1-4.3,4.5-7.8
			c-5.7-4.4-10.5-13.4-5.3-19.9c6.1-7.6,13.4-2.4,16.8,4.5c7.4,14.7,2.3,32.4-6.6,45.2c-9.5,13.5-23.5,23.5-36.9,32.8
			c-14.6,10.1-29.8,19.5-44.4,29.6c-13.2,9.1-28,18.8-37.3,32.2c-7.4,10.7-10,25.8-2.3,37.1c8.2,12,23.2,12,35.3,6.4
			c12.8-5.8,25.2-17.5,30.7-30.5c3.8-9,4.1-18.9,4-28.6c0-10.9-0.3-21.7-0.8-32.5c-1-21.4-3.1-42.8-5.9-64.1c-0.6-4.3-8-4.3-8.7,0
			c-0.9,5.9-2.2,11.6-3.9,17.3c-1.7,5.5-3.4,12.1-7.1,16.6c-5.5,6.5-6.1-5.4-6.4-8.9c-0.5-6.5-0.2-12.9,0.5-19.4c-3,0-6,0-9,0
			c-0.6,15.4-5.3,30.7-14.1,43.5c-4,5.9-10.5,11.2-16.7,4.6c-5.4-5.7-5.2-15.5-5.7-22.8c-2.3-32.2-0.3-64.9,8.3-96.1
			c1.1-3.9,2.2-7.7,3.5-11.5c0.4-1.3,0.8-4.1,1.8-5.1c1.9-1.9,3.8,0.1,5.1,1.5c4.3,4.8,5.1,11.5,5,17.7c-0.3,13.2-4.8,26.9-9.6,39.1
			c-9.8,24.6-26.7,48.1-49.9,61.5c-6.1,3.6-15.2,7.5-21.9,3.1c-5.7-3.8-6.1-11.5-5.7-17.6c0.5-8.2,2.8-16.3,4.6-24.2
			c0.8-3.6,1.5-7.5,3.1-10.9c1-2.1,5.7-7.6,8.4-3.9c0.2-1.8,0.5-3.6,0.7-5.5c-6.1,7.8-14.3,13.3-23.9,15.9
			c-4.5,1.2-9.1,1.7-13.7,1.6c-2.5-0.1-4.9-0.4-7.3-0.9c-1.2-0.3-2.3-0.6-3.5-0.9c-0.5-0.2-0.9-0.3-1.4-0.5c-1.3-1-2.4-0.5-3.3,1.4
			c-1.1-0.4-2.1-0.9-3.2-1.3c10.4,13,18.8,30.2,12.8,47c-2.7,7.5-8.3,13.8-16.1,15.9c-7.1,2-15.2,0.6-20.1-5.3
			c-11.2-13.6-0.2-31.3,3.9-45.1c3.8-12.9,1.2-30.8-14.3-34c-16.2-3.4-27.4,10.8-37.2,21c-5.1,5.3-11.1,10.2-18.9,9.7
			c-7.1-0.5-11.6-6.6-7-12.9c4.9-6.7,13.2-6.5,19.7-2.2c6.9,4.6,11.4,12.4,13.8,20.2c4.9,16,0.6,34.3-13.7,44.1
			c-14.4,9.7-35.3,6.3-43.2-10.2c-4.4-9.3-1.9-20.1,2.2-29c2.2-4.8,5-9.5,7.8-14c2.3-3.6,6.2-10,11.3-8
			C162.6,123.2,165,114.5,159.6,112.4L159.6,112.4z"/>
	</g>
</g>
<g>
	<g>
		<path class="st0" d="M590.5,189.4c-37.1-17.3-40.2-67.8-36.7-103.3c1.9-18.5,8.5-37.7,23.5-49.7c7.6-6.1,16.9-9,26.4-10.3
			c10.2-1.5,21.2-1.7,31,2c16.3,6.3,27.1,22.2,31.7,38.5c5.5,19.3,4.4,40.9,0.9,60.5c-3,17.4-9.7,34.3-25.3,44
			c-15.4,9.5-36.7,18.6-52.8,5.8c-16.7-13.3-17.5-41.4-4.7-57.7c5.6-7.1,17.4-12.2,24.9-4.8c3.8,3.7,4.9,9.7,6,14.6
			c1.1,4.9,2.5,13.2-4,14.8c-5.6,1.4-3.2,10.1,2.4,8.7c11.9-3,12.5-16,10.3-25.9c-2.3-10-6-20.1-16.6-23.6
			c-23.2-7.5-38,17.9-40.3,37.2c-2.5,21.4,7.9,43.8,29.3,50.7c11.7,3.7,23.2,0.2,34.1-4.4c10.5-4.4,20.8-9.6,28.4-18.2
			c14.5-16.6,17.9-39.8,19.3-61c1.5-23.5-1-48.7-15.7-68c-6.2-8.1-14-14.9-23.4-18.9c-11.2-4.8-23.4-4.9-35.3-3.4
			c-11.4,1.4-22.4,4.7-31.6,11.8c-8.5,6.5-15.1,15.3-19.6,25c-11.4,24.9-10.8,55.8-6.7,82.4c3.8,24.7,16,49.9,39.7,61
			C591.1,199.6,595.7,191.9,590.5,189.4L590.5,189.4z"/>
	</g>
</g>
<g>
	<g>
		<path class="st0" d="M694.5,167.9c18.5-20.1,34.3-44.3,38-71.9c1.7-12.4,1.8-29.1-11.4-35.4c-13.4-6.4-22.1,6.5-27.6,16.7
			c-13.1,24.5-18.3,54.4-12.2,81.7c2.6,11.8,8.1,23.6,18.1,30.9c9,6.6,21,8.1,31.3,4.1c11.4-4.3,19.5-14.8,18.7-27.3
			c-0.8-11.8-8.5-23-20.4-25.6c-0.8,2.9-1.6,5.8-2.4,8.7c21,4.2,43.5-6.5,52.6-26.1c-2.7-0.4-5.5-0.7-8.2-1.1
			c4.2,21.2,8.5,42.5,10.2,64.2c0.8,10.3,1,20.7,0.4,31c-0.5,9.1-1.7,18.8-6.2,26.9c-4.1,7.4-11.9,14.1-20.8,13.5
			c-7.8-0.5-14-6.8-16.6-13.8c-6.7-17.5,8.2-34.1,22-42.7c16.6-10.3,35.6-16.7,52.7-26.2c13.6-7.5,27.5-17.3,33.6-32.2
			c5.3-13,2.1-32.9-15.2-33.4c-18.4-0.6-26.3,19.3-29.5,34.2c-3.7,17.1-5.2,40.5,14.5,48c17.6,6.7,34.5-5.2,42.5-20.5
			c2.7-5.1-5.1-9.7-7.8-4.5c-6.6,12.6-23.8,25.4-37.1,13.3c-6.6-6-5.8-16.5-5-24.5c0.9-8.9,3-18.6,7.3-26.6c3.4-6.2,12-14.2,19.5-9
			c6.6,4.5,4.7,14.9,1.9,21c-6.7,14.6-22.4,23-36.1,30.1c-27.1,14-72.5,26-73.9,63.6c-0.5,13.4,8.2,27.6,21.4,31.4
			c14.8,4.3,29.4-6.3,35.6-19.3c8.6-18.1,7.4-40.9,5.9-60.3c-1.7-22.4-6.1-44.5-10.5-66.6c-0.7-3.7-6.6-4.5-8.2-1.1
			c-7.4,15.8-25.2,25.4-42.5,21.9c-5.6-1.1-8.1,7.4-2.4,8.7c8.1,1.8,13.4,9.3,13.8,17.5c0.5,8.5-5,15.4-12.7,18.3
			c-20.7,7.8-34.1-12-37.9-29.7c-4.6-21.4-1.5-44.7,7-64.7c2.1-5,4.6-9.9,7.4-14.5c2.5-4.1,5.8-9.9,11.5-8.6
			c12,2.6,8.9,22.4,7.3,30.8c-4.6,24-18.6,44.9-34.8,62.6C684.2,165.8,690.6,172.2,694.5,167.9L694.5,167.9z"/>
	</g>
</g>
<g>
	<g>
		<path class="st0" d="M777.9,102.3c-3.8-0.6-8.5-1.4-11.7-3.8c-1.4-1.1-2-1.9-1.1-3.6c0.6-1.1,2-2,3.2-2.4c1.4-0.4,2.8,0.1,3-0.1
			c2.5,0.7,5,1.3,7.5,2c-0.2-1.4,0.6-5.3,2.4-5.6c2.5-0.5,1.1,2.3,0.5,3.2c-2.4,3.8-5.9,6.6-7.7,10.8c-2.2,5.3,6.5,7.7,8.7,2.4
			c1.7-4,6.1-6.7,8-10.8c2-4.5,1.1-9.1-2.9-12.2c-10.3-7.9-19.1,4.9-17.7,14.6c0.5,3.4,5.4,4.3,7.5,2c4.5-5,2.4-12.7-4-14.9
			c-6.5-2.3-14.4,1.9-17,8c-5.1,12,9.8,17.6,18.9,19.1C781.2,111.9,783.6,103.2,777.9,102.3L777.9,102.3z"/>
	</g>
</g>
<g>
	<g>
		<path class="st0" d="M890.9,118.9c0.2,2.5,0.5,4.9,0.7,7.4c0.6,5.7,9.4,5.9,9,0c-0.5-8.4-6.5-14.6-14.4-16.8
			c-8.6-2.4-17.2,0.9-23.4,7.1c-14.1,14.1-19.2,40.9-9.6,58.7c9,16.5,30.1,23.8,45.8,12.1c16-11.9,21.3-34.8,25.8-53
			c6.7-27.1,9.7-55.1,8.9-83c-0.1-4.9-7.8-6.4-8.8-1.2c-7.2,37.6-8.4,76.1-3.3,114c1.5,10.9,5.2,31.9,21.4,26.5
			c6.8-2.3,12.2-9,16.4-14.5c4.9-6.3,8.9-13.1,12.1-20.4c6.9-16.1,9-33.5,6.5-50.8c-0.6-4.3-8-4.3-8.7,0
			c-3.4,21.2,10.6,37.6,17.6,56.4c1.8,5,3.7,11,0.5,15.8c-2.4,3.5-6.6,5.8-10.9,6.2c-7.3,0.8-16.9-3.5-17.8-11.6
			c-2.3,1.3-4.5,2.6-6.8,3.9c26.5,15.1,63.4,17.7,82.7-10c7.6-10.9,10.7-26.1,4.6-38.4c-3-5.9-8.4-11.2-15.2-11.9
			c-6.6-0.7-10.6,5.5-6.4,11c5.4,7,13.6,1.7,16.5-4.6c3.5-7.7,3.4-16.6-0.6-24c-2.8-5.1-10.6-0.5-7.8,4.5c1.8,3.3,2.3,6.8,1.7,10.6
			c-0.3,1.7-0.7,3.3-1.4,4.8c-0.3,0.8-0.6,1.5-1.1,2.1c-0.2,1-0.4,2.1-0.5,3.1c-1.1,0.4-2.1,0.9-3.2,1.3
			c10.9-0.4,13.3,14.8,11.7,22.9c-1.8,9-7.3,17.2-14.6,22.7c-18.2,13.8-43.5,8.5-61.9-2c-2.7-1.5-7.2,0.4-6.8,3.9
			c2.4,21.9,34.7,28.4,45.9,9.3c6.7-11.5-1.1-25.7-6.4-36.2c-5.8-11.5-13.4-24-11.2-37.5c-2.9,0-5.8,0-8.7,0
			c2.5,16.8-0.5,34.4-8.2,49.6c-3.8,7.5-8.7,14.5-14.7,20.5c-2.4,2.4-6.4,6.8-10.1,4.2c-2.5-1.8-3.5-5.7-4.2-8.5
			c-2.2-9.2-2.9-19.1-3.6-28.5c-0.8-10.2-1.2-20.4-1.1-30.6c0.2-20.6,2.3-41.2,6.2-61.5c-2.9-0.4-5.9-0.8-8.8-1.2
			c0.5,19.2-0.6,38.4-3.7,57.4c-2.9,17.5-6.8,35.9-13.8,52.3c-5.3,12.2-15.8,27.1-31.2,22.4c-18.2-5.6-21.1-27-16.4-42.8
			c2.4-8.2,6.9-17.8,15.1-21.7c6-2.8,16.4-0.5,16.9,7.3c3,0,6,0,9,0c-0.2-2.5-0.5-4.9-0.7-7.4C899.3,113.2,890.3,113.1,890.9,118.9
			L890.9,118.9z"/>
	</g>
</g>
<g>
	<g>
		<path class="st0" d="M909.7,85.1c18.4-0.3,36.8-1.8,55-4.4c5.7-0.8,3.3-9.5-2.4-8.7c-17.4,2.5-35,3.8-52.6,4.1
			C903.9,76.1,903.9,85.1,909.7,85.1L909.7,85.1z"/>
	</g>
</g>
</svg>
